<svg xmlns="http://www.w3.org/2000/svg" style="display: none;">
  <defs>
    <svg id="instagram" viewbox="0 0 16 16"><path d="M8 0C5.827 0 5.555.01 4.702.048 3.85.088 3.27.222 2.76.42c-.526.204-.973.478-1.417.923-.445.444-.72.89-.923 1.417-.198.51-.333 1.09-.372 1.942C.008 5.555 0 5.827 0 8s.01 2.445.048 3.298c.04.852.174 1.433.372 1.942.204.526.478.973.923 1.417.444.445.89.72 1.417.923.51.198 1.09.333 1.942.372.853.04 1.125.048 3.298.048s2.445-.01 3.298-.048c.852-.04 1.433-.174 1.942-.372.526-.204.973-.478 1.417-.923.445-.444.72-.89.923-1.417.198-.51.333-1.09.372-1.942.04-.853.048-1.125.048-3.298s-.01-2.445-.048-3.298c-.04-.852-.174-1.433-.372-1.942-.204-.526-.478-.973-.923-1.417-.444-.445-.89-.72-1.417-.923-.51-.198-1.09-.333-1.942-.372C10.445.008 10.173 0 8 0zm0 1.44c2.136 0 2.39.01 3.233.048.78.036 1.203.166 1.485.276.374.145.64.318.92.598.28.28.453.546.598.92.11.282.24.705.276 1.485.038.844.047 1.097.047 3.233s-.01 2.39-.05 3.233c-.04.78-.17 1.203-.28 1.485-.15.374-.32.64-.6.92-.28.28-.55.453-.92.598-.28.11-.71.24-1.49.276-.85.038-1.1.047-3.24.047s-2.39-.01-3.24-.05c-.78-.04-1.21-.17-1.49-.28-.38-.15-.64-.32-.92-.6-.28-.28-.46-.55-.6-.92-.11-.28-.24-.71-.28-1.49-.03-.84-.04-1.1-.04-3.23s.01-2.39.04-3.24c.04-.78.17-1.21.28-1.49.14-.38.32-.64.6-.92.28-.28.54-.46.92-.6.28-.11.7-.24 1.48-.28.85-.03 1.1-.04 3.24-.04zm0 2.452c-2.27 0-4.108 1.84-4.108 4.108 0 2.27 1.84 4.108 4.108 4.108 2.27 0 4.108-1.84 4.108-4.108 0-2.27-1.84-4.108-4.108-4.108zm0 6.775c-1.473 0-2.667-1.194-2.667-2.667 0-1.473 1.194-2.667 2.667-2.667 1.473 0 2.667 1.194 2.667 2.667 0 1.473-1.194 2.667-2.667 2.667zm5.23-6.937c0 .53-.43.96-.96.96s-.96-.43-.96-.96.43-.96.96-.96.96.43.96.96z"/></svg>
    <svg id="openstreetmap" viewBox="0 0 16 16"><path d="M15.148304,9.66848089 L15.5656372,10.8996799 L14.1575786,14.4052149 L10.6420684,15.7367028 L6.99350775,14.4052149 L3.55765922,15.7367028 L3.21257342,15.6075511 L6.99350775,11.8375386 L6.87236269,11.0720745 L7.78281861,10.1228762 C8.29060505,10.4772676 8.71396077,10.7362022 9.05288576,10.8996799 C9.39181075,11.0631577 9.73472479,11.1738271 10.0816279,11.2316882 L10.4601132,10.8182883 C10.8397598,10.9018653 11.2342297,10.9459206 11.6389892,10.9459206 C12.9752965,10.9459206 14.1994487,10.4657268 15.148304,9.66848089 Z M6.99350775,0.26 L8.68479379,0.89668732 C7.17810519,1.86826128 6.18050542,3.5613481 6.18050542,5.48743682 C6.18050542,5.89841071 6.22592386,6.29877656 6.31201517,6.68378879 L5.87366987,6.97259667 L5.99588613,7.35901241 L5.99588613,7.35901241 L6.10808075,7.68234036 C6.17953661,7.87686306 6.24431138,8.02932723 6.30240506,8.13973286 L6.39171204,8.29536523 L6.39171204,8.29536523 L6.52020817,8.49728881 L6.52020817,8.49728881 L6.68789345,8.74550361 L6.68789345,8.74550361 L6.89476788,9.04000962 L6.89476788,9.04000962 L7.14083146,9.38080685 L7.14083146,9.38080685 L6.13029332,10.2593217 L5.29550094,10.2593217 L0.855886949,14.7255387 L0,14.4052149 L1.37799858,10.8996799 L0,7.2922163 L1.37799858,3.75268116 L0,0.26 L3.55765922,1.56366953 L6.99350775,0.26 Z M11.6389892,1.12642599 C14.0475089,1.12642599 16,3.07891705 16,5.48743682 C16,7.8959566 14.0475089,9.84844765 11.6389892,9.84844765 C9.23046939,9.84844765 7.27797834,7.8959566 7.27797834,5.48743682 C7.27797834,3.07891705 9.23046939,1.12642599 11.6389892,1.12642599 Z"/></svg>
    <svg id="twitter" viewbox="0 0 16 16"><path d="M16 3.038c-.59.26-1.22.437-1.885.517.677-.407 1.198-1.05 1.443-1.816-.634.37-1.337.64-2.085.79-.598-.64-1.45-1.04-2.396-1.04-1.812 0-3.282 1.47-3.282 3.28 0 .26.03.51.085.75-2.728-.13-5.147-1.44-6.766-3.42C.83 2.58.67 3.14.67 3.75c0 1.14.58 2.143 1.46 2.732-.538-.017-1.045-.165-1.487-.41v.04c0 1.59 1.13 2.918 2.633 3.22-.276.074-.566.114-.865.114-.21 0-.41-.02-.61-.058.42 1.304 1.63 2.253 3.07 2.28-1.12.88-2.54 1.404-4.07 1.404-.26 0-.52-.015-.78-.045 1.46.93 3.18 1.474 5.04 1.474 6.04 0 9.34-5 9.34-9.33 0-.14 0-.28-.01-.42.64-.46 1.2-1.04 1.64-1.7z"/></svg>
    <svg id="github" viewBox="0 0 16 16"><path d="M7.999,0.431c-4.285,0-7.76,3.474-7.76,7.761 c0,3.428,2.223,6.337,5.307,7.363c0.388,0.071,0.53-0.168,0.53-0.374c0-0.184-0.007-0.672-0.01-1.32 c-2.159,0.469-2.614-1.04-2.614-1.04c-0.353-0.896-0.862-1.135-0.862-1.135c-0.705-0.481,0.053-0.472,0.053-0.472 c0.779,0.055,1.189,0.8,1.189,0.8c0.692,1.186,1.816,0.843,2.258,0.645c0.071-0.502,0.271-0.843,0.493-1.037 C4.86,11.425,3.049,10.76,3.049,7.786c0-0.847,0.302-1.54,0.799-2.082C3.768,5.507,3.501,4.718,3.924,3.65 c0,0,0.652-0.209,2.134,0.796C6.677,4.273,7.34,4.187,8,4.184c0.659,0.003,1.323,0.089,1.943,0.261 c1.482-1.004,2.132-0.796,2.132-0.796c0.423,1.068,0.157,1.857,0.077,2.054c0.497,0.542,0.798,1.235,0.798,2.082 c0,2.981-1.814,3.637-3.543,3.829c0.279,0.24,0.527,0.713,0.527,1.437c0,1.037-0.01,1.874-0.01,2.129 c0,0.208,0.14,0.449,0.534,0.373c3.081-1.028,5.302-3.935,5.302-7.362C15.76,3.906,12.285,0.431,7.999,0.431z"/></svg>
    <svg id="email" viewBox="0 0 16 16"><path d="M15.9998839,5.717 L16,13 C16,13.5522847 15.5522847,14 15,14 L1,14 C0.44771525,14 6.7640663e-17,13.5522847 0,13 L-0.000116076482,5.717 L8,10.8933143 L15.9998839,5.717 Z M15,2 C15.5522847,2 16,2.44771525 16,3 L15.9998839,3.929 L8,9.106 L-0.000116076482,3.929 L0,3 C-6.7640663e-17,2.44771525 0.44771525,2 1,2 L15,2 Z"/></svg>
  </defs>
</svg>
