<?xml version="1.0" standalone="no"?>
<!DOCTYPE svg PUBLIC "-//W3C//DTD SVG 20010904//EN"
 "http://www.w3.org/TR/2001/REC-SVG-20010904/DTD/svg10.dtd">
<svg version="1.0" xmlns="http://www.w3.org/2000/svg"
 width="700.000000pt" height="700.000000pt" viewBox="0 0 700.000000 700.000000"
 preserveAspectRatio="xMidYMid meet">
<g transform="translate(0.000000,700.000000) scale(0.100000,-0.100000)"
fill="#000000" stroke="none">
<path d="M3483 6955 c-6 -22 -28 -85 -48 -140 -20 -55 -54 -149 -76 -210 -21
-60 -57 -162 -79 -225 -23 -63 -54 -151 -70 -195 -16 -44 -51 -143 -78 -220
-27 -77 -107 -302 -176 -500 -70 -198 -131 -369 -136 -380 -21 -52 -90 -251
-90 -262 0 -7 4 -13 9 -13 4 0 93 -41 197 -91 233 -113 465 -224 522 -251 l42
-20 0 -474 0 -475 -887 -890 c-962 -965 -902 -905 -888 -897 6 3 48 24 95 46
47 22 135 63 195 92 155 74 290 137 360 170 33 15 136 64 228 109 93 45 170
81 172 81 2 0 92 43 200 95 109 52 199 95 200 95 2 0 74 34 160 75 87 41 159
75 161 75 2 0 4 -573 4 -1272 l1 -1273 55 155 c31 85 112 313 181 505 68 193
126 355 127 360 2 6 6 17 9 25 9 23 218 610 233 655 7 22 31 90 52 150 78 215
112 314 112 322 0 5 -15 15 -32 22 -18 8 -132 62 -253 121 -121 58 -280 135
-352 170 l-133 63 0 469 c0 257 3 468 6 468 3 0 404 -397 890 -882 951 -949
900 -898 892 -883 -12 21 -118 246 -118 250 0 2 -27 59 -60 125 -32 66 -59
121 -59 123 1 1 -36 78 -80 171 -45 93 -81 170 -81 171 0 2 -43 92 -95 200
-52 109 -95 198 -95 200 0 2 -36 77 -79 168 -101 210 -151 316 -162 345 l-9
22 -470 0 c-258 0 -470 3 -470 6 0 4 547 556 1725 1737 28 27 46 47 40 45 -5
-3 -37 -18 -70 -33 -33 -15 -116 -55 -185 -87 -69 -33 -159 -76 -200 -95 -41
-19 -115 -55 -165 -78 -49 -24 -128 -61 -175 -83 -86 -40 -218 -103 -410 -194
-58 -28 -141 -67 -185 -88 -189 -89 -254 -119 -314 -149 -36 -17 -66 -31 -68
-31 -1 0 -4 573 -5 1273 -2 993 -6 1263 -15 1232z"/>
<path d="M1722 5255 c16 -32 53 -110 111 -235 19 -41 63 -133 97 -205 63 -133
87 -183 215 -455 40 -85 112 -235 159 -334 47 -98 86 -180 86 -181 0 -2 36
-78 80 -170 44 -92 80 -169 80 -171 0 -2 -573 -4 -1272 -4 l-1273 -1 170 -60
c94 -33 199 -71 235 -84 59 -21 185 -66 405 -145 44 -15 159 -56 255 -90 96
-34 238 -85 315 -112 77 -27 151 -54 165 -58 23 -8 101 -35 455 -162 77 -28
149 -51 159 -52 22 -1 20 -4 161 289 53 110 126 262 162 338 l67 137 468 0
c257 0 468 2 468 5 0 3 -1739 1740 -1777 1775 -3 3 1 -8 9 -25z"/>
<path d="M4801 4238 c-8 -18 -59 -125 -114 -238 -54 -113 -116 -241 -137 -285
-21 -44 -52 -109 -69 -144 -17 -36 -31 -66 -31 -68 0 -2 573 -3 1273 -3 l1272
1 -290 104 c-159 57 -362 129 -450 160 -171 61 -515 183 -760 270 -82 29 -253
90 -380 135 -126 44 -240 85 -253 90 -37 16 -46 12 -61 -22z"/>
</g>
</svg>
